HIERARCHY
ROOT Hips
{
  OFFSET 3.13124 94.3669 -3.18751
  CHANNELS  6 Xposition Yposition Zposition Zrotation Xrotation Yrotation
  JOINT LeftUpLeg
  {
    OFFSET 8.64259 1.95398 -2.38835
    CHANNELS 3 Zrotation Xrotation Yrotation
    JOINT LeftLeg
    {
      OFFSET 43.7702 0 0
      CHANNELS 3 Zrotation Xrotation Yrotation
      JOINT LeftFoot
      {
        OFFSET 40.6238 0 0
        CHANNELS 3 Zrotation Xrotation Yrotation
        JOINT LeftToeBase
        {
          OFFSET 12.7242 0 0
          CHANNELS 3 Zrotation Xrotation Yrotation
          End Site
          {
            OFFSET 0 0 0
          }
        }
      }
    }
  }
  JOINT RightUpLeg
  {
    OFFSET -8.2249 1.95398 -2.59336
    CHANNELS 3 Zrotation Xrotation Yrotation
    JOINT RightLeg
    {
      OFFSET 43.5653 0 0
      CHANNELS 3 Zrotation Xrotation Yrotation
      JOINT RightFoot
      {
        OFFSET 40.6238 0 0
        CHANNELS 3 Zrotation Xrotation Yrotation
        JOINT RightToeBase
        {
          OFFSET 12.7242 0 0
          CHANNELS 3 Zrotation Xrotation Yrotation
          End Site
          {
            OFFSET 0 0 0
          }
        }
      }
    }
  }
  JOINT Spine
  {
    OFFSET 0.165834 0.87714 6.61349
    CHANNELS 3 Zrotation Xrotation Yrotation
    JOINT Spine1
    {
      OFFSET 7.38962 1.71661e-005 0
      CHANNELS 3 Zrotation Xrotation Yrotation
      JOINT Spine2
      {
        OFFSET 11.9445 1.14441e-005 0
        CHANNELS 3 Zrotation Xrotation Yrotation
        JOINT Spine3
        {
          OFFSET 14.7254 4.19617e-005 0
          CHANNELS 3 Zrotation Xrotation Yrotation
          JOINT Spine4
          {
            OFFSET 10.9679 0 0
            CHANNELS 3 Zrotation Xrotation Yrotation
            JOINT RightShoulder
            {
              OFFSET 2.46616 -1.6653 3.69651
              CHANNELS 3 Zrotation Xrotation Yrotation
              JOINT RightArm
              {
                OFFSET 13.0012 0 0
                CHANNELS 3 Zrotation Xrotation Yrotation
                JOINT RightForeArm
                {
                  OFFSET 28.7848 1.52588e-005 0
                  CHANNELS 3 Zrotation Xrotation Yrotation
                  JOINT RightHand
                  {
                    OFFSET 26.5688 1.52588e-005 0
                    CHANNELS 3 Zrotation Xrotation Yrotation
                    End Site
                    {
                      OFFSET 0 0 0
                    }
                  }
                }
              }
            }
            JOINT LeftShoulder
            {
              OFFSET 2.38034 -1.29275 -3.75231
              CHANNELS 3 Zrotation Xrotation Yrotation
              JOINT LeftArm
              {
                OFFSET 16.3182 6.10352e-005 0
                CHANNELS 3 Zrotation Xrotation Yrotation
                JOINT LeftForeArm
                {
                  OFFSET 27.0901 0 0
                  CHANNELS 3 Zrotation Xrotation Yrotation
                  JOINT LeftHand
                  {
                    OFFSET 24.5451 1.52588e-005 0
                    CHANNELS 3 Zrotation Xrotation Yrotation
                    End Site
                    {
                      OFFSET 0 0 0
                    }
                  }
                }
              }
            }
            JOINT Neck
            {
              OFFSET 5.0226 -0.0266342 0
              CHANNELS 3 Zrotation Xrotation Yrotation
              JOINT Head
              {
                OFFSET 6.69363 2.86102e-005 0
                CHANNELS 3 Zrotation Xrotation Yrotation
                End Site
                {
                  OFFSET 0 0 0
                }
              }
            }
          }
        }
      }
    }
  }
}
MOTION
Frames:	10
Frame Time:	0.0333333
-6.66423 83.8034 -52.9117 -103.746 -43.0818 -107.066 -163.733 16.903 85.8379 -92.8609 -15.3728 -15.5119 -3.00325 11.4118 18.3396 28.7808 4.4302e-006 7.28589e-006 -179.757 39.2046 88.5679 -51.1781 -15.4502 -1.23781 44.0705 -8.19521 -6.24402 28.7808 1.34702e-005 3.08416e-005 -2.69285 7.69758 -88.1068 11.0272 -5.53726 -3.87471 -0.635899 -5.685 -3.62312 -23.1865 -4.1618 -5.35381 -3.17386 -4.1618 -5.35385 99.6075 -30.2011 -87.2982 35.8713 -20.8611 -28.2806 -42.294 -5.48274 -86.2985 -4.6161 1.44813 -45.9832 -99.8488 -43.5692 61.636 -20.2478 -8.84632 -28.9338 101.751 -30.8241 -86.8176 22.8745 -11.928 -54.0401 27.4597 33.0963 23.9524 -24.1161 21.8485 8.80073 
-7.12188 84.6134 -51.3551 -103.49 -40.0246 -110.923 -159.093 30.235 86.138 -99.9341 -12.7974 -17.1499 -6.45588 12.1862 21.4024 28.7808 4.4302e-006 7.28589e-006 -178.303 38.2641 83.6907 -52.2814 -18.4455 -1.44148 45.6155 -9.00748 -6.83055 28.7808 1.34702e-005 3.08416e-005 -3.73391 7.97968 -85.3006 10.3849 -5.66426 0.720638 -1.27449 -5.61106 0.969285 -23.9049 -5.64062 -1.0158 -3.89225 -5.64063 -1.01582 104.098 -55.1454 -79.2186 37.0304 -23.677 -31.288 -49.2434 -9.43383 -83.7185 -2.51083 0.842352 -54.4883 -92.5704 -11.2319 58.1635 -21.8882 -23.0574 -28.5968 153.477 -29.3384 -50.4995 20.4066 -8.75245 -45.4728 55.3622 8.90353 -41.932 -56.9556 9.27224 52.0994 
-7.5224 84.6713 -50.1523 -104.651 -36.7601 -115.822 -155.116 41.9963 88.3005 -104.783 -11.0307 -18.5572 -10.9057 14.036 27.734 28.7808 4.4302e-006 7.28589e-006 -176.644 37.5659 78.5845 -55.3074 -18.8225 -1.56871 47.271 -10.1958 -7.61636 28.7808 1.34702e-005 3.08416e-005 -4.21267 8.17943 -85.6888 9.95075 -6.11162 -0.00260782 -1.70577 -6.10581 0.267388 -24.3492 -5.82732 -1.84566 -4.33653 -5.82732 -1.84566 101.833 -42.6389 -82.5549 35.0192 -23.9124 -39.0237 -46.1703 -10.8598 -81.2764 -6.47739 2.59782 -53.3572 -92.4119 -19.7002 63.8753 -22.923 -21.8161 -36.8992 169.534 -18.5868 -37.8095 29.0959 -9.4393 -36.3029 63.1874 23.9033 -19.3303 -51.43 20.6675 34.4661 
-8.2152 84.9149 -48.1994 -106.637 -32.4759 -121.762 -154.696 49.0948 94.8919 -109.848 -19.8054 -22.5303 -10.5088 18.5839 37.8545 28.7808 4.4302e-006 7.28589e-006 -174.689 35.5035 72.2018 -58.692 -18.8571 -1.68453 50.0423 -11.0366 -7.86314 28.7808 1.34702e-005 3.08416e-005 -4.07009 8.28641 -85.611 9.87062 -5.61065 1.17001 -1.78913 -5.55372 1.41653 -24.4207 -5.70208 -0.575907 -4.40803 -5.70208 -0.575919 101.151 -37.3152 -83.92 34.8186 -22.5691 -41.0079 -46.9891 -12.8507 -79.6238 -11.4848 4.69716 -51.9855 -92.9766 -17.1119 61.0536 -21.9159 -19.6494 -28.2001 178.391 -6.80539 -33.0807 22.7919 -4.16126 -22.616 62.5363 26.7238 -16.334 -48.8719 21.9816 34.0853 
-9.41766 85.8239 -46.0468 -106.622 -27.1326 -127.58 -157.056 55.311 103.538 -103.874 -12.2196 -17.1 -11.9871 12.8017 25.7795 28.7808 4.4302e-006 7.28589e-006 -172.878 33.5948 65.4119 -60.2196 -16.3933 -1.62201 52.0975 -14.5293 -10.0892 28.7808 1.34702e-005 3.08416e-005 -3.76115 8.22353 -85.4198 10.0636 -4.88015 1.76189 -1.59965 -4.7981 1.97537 -24.2081 -5.18428 0.20997 -4.19542 -5.18428 0.209959 99.7452 -25.0472 -87.5009 34.5912 -19.3863 -42.0942 -48.3702 -15.8182 -77.4795 -17.1681 6.84327 -50.0781 -94.1416 -21.2709 61.1041 -21.2282 -17.5629 -23.8944 -176.847 1.42378 -29.6427 17.9132 -1.85302 -14.0143 54.9321 35.7594 -0.648375 -38.4087 26.0311 25.9009 
-10.6063 87.0092 -43.3128 -104.78 -22.8261 -132.662 -162.18 56.6462 115.475 -99.6538 -19.5247 -19.1155 -8.24125 15.0484 28.6242 28.7808 4.4302e-006 7.28589e-006 -170.541 33.3386 57.2441 -61.3847 -17.1629 -1.7099 53.2253 -16.5717 -11.2941 28.7808 1.34702e-005 3.08416e-005 -3.42667 8.09562 -85.5805 10.4399 -4.26513 2.69705 -1.22723 -4.1396 2.8821 -23.8126 -4.86616 1.28946 -3.79993 -4.86617 1.28946 98.993 -15.2476 -90.5758 35.9189 -17.3491 -41.5458 -49.3351 -20.5431 -73.9412 -26.2554 9.44642 -44.7895 -93.7767 -24.9319 63.8024 -20.0569 -13.4107 -17.0915 -174.152 6.7687 -29.3076 7.02174 0.200052 -1.29798 48.5771 41.1139 11.52 -30.9011 28.3408 20.9235 
-11.8369 88.8475 -40.0363 -104.049 -21.4676 -137.541 -168.564 56.9834 124.553 -88.2058 -20.6594 -16.8772 -4.90962 12.8674 22.1027 28.7808 4.4302e-006 7.28589e-006 -169.3 31.608 48.9332 -60.4999 -18.3471 -1.75362 55.7108 -16.4948 -10.6807 28.7808 1.34702e-005 3.08416e-005 -3.4985 7.75772 -85.0288 11.1736 -4.17061 5.24065 -0.501897 -3.94053 5.41945 -23.0394 -5.56825 3.74096 -3.02672 -5.56826 3.74094 95.8205 -25.839 -96.0989 37.4124 -11.0056 -34.3627 -48.188 -25.6021 -69.1499 -25.2712 9.6164 -47.3079 -92.3064 -17.8553 63.2145 -21.4248 -20.3673 -19.717 -175.257 3.05434 -37.9269 10.1276 2.09495 14.1619 58.5743 32.9631 -15.7976 -45.674 25.1839 42.141 
-13.0386 90.803 -36.241 -105.906 -22.5694 -141.357 -174.541 57.7791 130.722 -72.1947 -20.1581 -12.0572 -3.18649 12.711 21.0344 28.7808 4.4302e-006 7.28589e-006 -170.845 27.4921 43.5465 -58.1579 -16.3076 -1.56711 59.2409 -15.0136 -9.12171 28.7808 1.34702e-005 3.08416e-005 -3.74614 8.01397 -85.5485 10.7879 -4.89723 6.08509 -0.889039 -4.62523 6.2941 -23.4324 -6.49807 4.33395 -3.41979 -6.49809 4.33394 97.1603 -31.6044 -92.0551 35.6394 -5.23089 -31.5098 -52.9822 -27.7728 -70.9991 -15.9606 5.71652 -45.7925 -88.8271 -15.404 69.7951 -23.0742 -25.2664 -55.5161 -175.945 0.249016 -63.6292 15.4002 9.35888 58.8564 79.1174 28.6454 -25.9012 -60.6358 25.002 43.7624 
-14.0466 92.8527 -32.6389 -107.801 -24.2359 -143.2 -179.551 58.7264 136.494 -52.6109 -22.5036 -7.04234 -2.07998 11.7353 18.7389 28.7808 4.4302e-006 7.28589e-006 -174.28 23.1924 40.8632 -53.9786 -16.1932 -1.44713 62.0898 -12.5001 -7.20642 28.7808 1.34702e-005 3.08416e-005 -3.32893 7.90228 -86.4482 11.0869 -4.72402 5.99524 -0.590252 -4.45665 6.19605 -23.131 -6.30214 4.29548 -3.11837 -6.30215 4.29548 97.7673 -33.4805 -90.6129 37.8606 -3.14221 -30.5732 -39.6091 -36.1665 -53.7452 -28.2182 9.29607 -41.7785 -89.3571 -16.0957 68.7234 -21.4793 -20.0052 -78.511 -168.914 0.724863 -81.6282 11.1337 19.9962 101.461 75.6082 29.4887 -24.0621 -60.0873 22.9497 45.1824 
-14.9518 95.0787 -29.4434 -109.035 -25.811 -144.353 -179.337 58.0695 137.611 -29.0836 -23.375 -3.51235 3.15424 13.0272 19.3493 28.7808 4.4302e-006 7.28589e-006 -178.704 19.3063 39.0852 -47.5845 -16.0023 -1.27937 64.4413 -8.99218 -4.97521 28.7808 1.34702e-005 3.08416e-005 -2.24776 7.36186 -86.9894 12.2047 -3.40662 5.96826 0.52336 -3.14121 6.10291 -21.9731 -5.04139 4.67411 -1.96041 -5.04139 4.67411 97.0727 -35.3035 -91.7106 39.7995 0.760926 -24.4426 -21.8779 -35.9823 -32.2761 -35.1925 11.4774 -40.9362 -93.5462 -15.3245 58.6573 -19.3975 -13.9187 -81.7421 -126.687 4.9781 -87.1307 -7.16151 -14.8525 141.5 48.0601 29.2753 -19.1421 -46.693 17.2444 53.0196 
